<svg width="38" height="37" viewBox="0 0 38 37" fill="none" xmlns="http://www.w3.org/2000/svg">
<path d="M35.89 14.8243C35.1231 14.0804 34.3548 13.3309 33.585 12.5758C33.5634 11.5301 33.5362 10.4848 33.5035 9.44002C33.4602 8.04062 32.854 6.70558 31.8213 5.6685C30.7886 4.63142 29.4492 4.03043 28.0514 3.98632C27.0064 3.95401 25.9615 3.92702 24.9165 3.90532C24.1631 3.13679 23.4162 2.36923 22.6758 1.60263C21.6734 0.574227 20.3758 -0.000722526 18.9953 6.81444e-07C17.6148 0.000723889 16.3165 0.578566 15.3206 1.60263C14.5764 2.37067 13.8271 3.13992 13.0727 3.91038C12.0277 3.9316 10.983 3.9586 9.93853 3.99138C7.06057 4.08974 4.58385 6.56817 4.4857 9.44436C4.45347 10.4901 4.42629 11.5354 4.40416 12.5802C3.63439 13.3347 2.86607 14.084 2.09919 14.8279C1.07516 15.8252 0.5 17.127 0.5 18.5011C0.5 19.8752 1.07155 21.177 2.09919 22.1779C2.86607 22.9213 3.63583 23.6698 4.40849 24.4234C4.42917 25.4692 4.45612 26.5152 4.48931 27.5614C4.53333 28.963 5.1388 30.2944 6.17077 31.3329C7.20274 32.3715 8.54141 32.971 9.94142 33.0144C10.9864 33.0477 12.0313 33.0749 13.0763 33.0961C13.8297 33.8642 14.5781 34.6313 15.3214 35.3974C16.3194 36.4258 17.6184 37.0007 19.0018 37C20.3852 36.9993 21.6806 36.4258 22.6822 35.3981C23.4256 34.6305 24.1742 33.862 24.928 33.0925C25.973 33.0708 27.0177 33.0436 28.0622 33.0108C30.9394 32.9132 33.4162 30.4347 33.5143 27.5578C33.547 26.513 33.574 25.4682 33.5951 24.4234C34.3649 23.6684 35.1335 22.9189 35.9008 22.175C36.9248 21.1784 37.5 19.8781 37.5 18.4989C37.5 17.1198 36.9155 15.8252 35.89 14.8243Z" fill="#FF3269"/>
<g clip-path="url(#clip0_1086_3644)">
<path d="M26 24.6258H12C11.5359 24.6258 11.0908 24.8102 10.7626 25.1384C10.4344 25.4666 10.25 25.9117 10.25 26.3758C10.25 26.84 10.4344 27.2851 10.7626 27.6133C11.0908 27.9414 11.5359 28.1258 12 28.1258H26C26.4641 28.1258 26.9092 27.9414 27.2374 27.6133C27.5656 27.2851 27.75 26.84 27.75 26.3758C27.75 25.9117 27.5656 25.4666 27.2374 25.1384C26.9092 24.8102 26.4641 24.6258 26 24.6258ZM27.75 13.2508C27.2859 13.2508 26.8408 13.4352 26.5126 13.7634C26.1844 14.0916 26 14.5367 26 15.0008C26.0002 15.121 26.0125 15.2409 26.0368 15.3587L22.8587 17.2671L20.1804 11.9103C20.4406 11.6722 20.6229 11.361 20.7032 11.0175C20.7835 10.6741 20.7581 10.3143 20.6304 9.98553C20.5027 9.65672 20.2786 9.37418 19.9875 9.17496C19.6964 8.97574 19.3519 8.86914 18.9991 8.86914C18.6464 8.86914 18.3019 8.97574 18.0108 9.17496C17.7197 9.37418 17.4956 9.65672 17.3679 9.98553C17.2401 10.3143 17.2148 10.6741 17.2951 11.0175C17.3754 11.361 17.5576 11.6722 17.8179 11.9103L15.1413 17.2671L11.9633 15.3587C11.9875 15.2409 11.9998 15.121 12 15.0008C12 14.6547 11.8974 14.3164 11.7051 14.0286C11.5128 13.7408 11.2395 13.5165 10.9197 13.384C10.5999 13.2516 10.2481 13.2169 9.90859 13.2844C9.56913 13.352 9.25731 13.5186 9.01256 13.7634C8.76782 14.0081 8.60115 14.3199 8.53363 14.6594C8.4661 14.9989 8.50076 15.3507 8.63321 15.6705C8.76566 15.9903 8.98997 16.2636 9.27775 16.4559C9.56554 16.6482 9.90388 16.7508 10.25 16.7508C10.2824 16.7508 10.3121 16.7429 10.3436 16.7412L11.02 22.8758H26.98L27.6564 16.7412C27.6879 16.7412 27.7176 16.7508 27.75 16.7508C28.2141 16.7508 28.6592 16.5664 28.9874 16.2383C29.3156 15.9101 29.5 15.465 29.5 15.0008C29.5 14.5367 29.3156 14.0916 28.9874 13.7634C28.6592 13.4352 28.2141 13.2508 27.75 13.2508Z" fill="#FFBF0F"/>
</g>
<defs>
<clipPath id="clip0_1086_3644">
<rect width="21" height="21" fill="white" transform="translate(8.5 8)"/>
</clipPath>
</defs>
</svg>
